<?xml version="1.0" encoding="UTF-8"?>
<svg xmlns="http://www.w3.org/2000/svg" xmlns:xlink="http://www.w3.org/1999/xlink" viewBox="0 0 768 1080">
  <defs>
    <style>
      .cls-1 {
        fill: url(#linear-gradient);
      }

      .cls-2 {
        mask: url(#mask);
      }

      .cls-3 {
        fill: url(#linear-gradient-12);
        opacity: .05;
      }

      .cls-4 {
        fill: #161b34;
      }

      .cls-5 {
        fill: url(#linear-gradient-10);
        opacity: .02;
      }

      .cls-6 {
        opacity: .33;
      }

      .cls-6, .cls-7 {
        fill: #f40f4c;
      }

      .cls-8 {
        fill: url(#linear-gradient-8);
      }

      .cls-9 {
        fill: url(#linear-gradient-3);
      }

      .cls-10 {
        fill: url(#linear-gradient-4);
      }

      .cls-11 {
        fill: url(#linear-gradient-2);
      }

      .cls-12 {
        fill: url(#linear-gradient-6);
      }

      .cls-13 {
        fill: url(#linear-gradient-7);
      }

      .cls-14 {
        fill: url(#linear-gradient-5);
      }

      .cls-15 {
        fill: url(#linear-gradient-11);
        opacity: .4;
      }

      .cls-16 {
        fill: url(#linear-gradient-9);
        opacity: .2;
      }

      .cls-17 {
        mask: url(#mask-1);
      }

      .cls-18 {
        fill: #ed1b4d;
        opacity: .51;
      }

      .cls-7 {
        opacity: .26;
      }

      .cls-19 {
        fill: #e3365e;
        opacity: .25;
      }
    </style>
    <linearGradient id="linear-gradient" x1="242.78" y1="-310.31" x2="346.93" y2="778.32" gradientUnits="userSpaceOnUse">
      <stop offset="0" stop-color="#e3365e"/>
      <stop offset="1" stop-color="#b44f73"/>
    </linearGradient>
    <linearGradient id="linear-gradient-2" x1="370.74" y1="-52.58" x2="568.61" y2="877.41" gradientUnits="userSpaceOnUse">
      <stop offset="0" stop-color="#b44f73"/>
      <stop offset="1" stop-color="#e3365e"/>
    </linearGradient>
    <linearGradient id="linear-gradient-3" x1="432.43" y1="-602.39" x2="629.8" y2="488.09" gradientUnits="userSpaceOnUse">
      <stop offset="0" stop-color="#e3365e"/>
      <stop offset="1" stop-color="#b44f73"/>
    </linearGradient>
    <linearGradient id="linear-gradient-4" x1="36.56" y1="-169.1" x2="239.67" y2="1101.61" gradientUnits="userSpaceOnUse">
      <stop offset="0" stop-color="#e3365e"/>
      <stop offset="1" stop-color="#161b34"/>
    </linearGradient>
    <linearGradient id="linear-gradient-5" x1="574.74" y1="-52.58" x2="772.61" y2="877.41" xlink:href="#linear-gradient-2"/>
    <linearGradient id="linear-gradient-6" x1="271.89" y1="-168.9" x2="475.36" y2="1104.07" gradientUnits="userSpaceOnUse">
      <stop offset="0" stop-color="#161b34"/>
      <stop offset="1" stop-color="#e3365e"/>
    </linearGradient>
    <linearGradient id="linear-gradient-7" x1="901.29" y1="762.73" x2="615.83" y2="-669.51" gradientUnits="userSpaceOnUse">
      <stop offset="0" stop-color="#e3365e"/>
      <stop offset="1" stop-color="#ffad84"/>
    </linearGradient>
    <linearGradient id="linear-gradient-8" x1="398.75" y1="787.08" x2="106.54" y2="-679.05" xlink:href="#linear-gradient-7"/>
    <linearGradient id="linear-gradient-9" x1="814.46" y1="478.52" x2="252.74" y2="588.7" gradientUnits="userSpaceOnUse">
      <stop offset="0" stop-color="#ef284a"/>
      <stop offset="1" stop-color="#ff5681"/>
    </linearGradient>
    <linearGradient id="linear-gradient-10" x1="523.35" y1="462.38" x2="-1500.24" y2="796.37" gradientUnits="userSpaceOnUse">
      <stop offset="0" stop-color="#000"/>
      <stop offset="1" stop-color="#000" stop-opacity=".5"/>
    </linearGradient>
    <filter id="luminosity-noclip-2" data-name="luminosity-noclip" x="8576" y="-8768" width="-32766" height="32766" color-interpolation-filters="sRGB" filterUnits="userSpaceOnUse">
      <feFlood flood-color="#fff" result="bg"/>
      <feBlend in="SourceGraphic" in2="bg"/>
    </filter>
    <mask id="mask" x="8576" y="-8768" width="-32766" height="32766" maskUnits="userSpaceOnUse"/>
    <filter id="luminosity-noclip-3" x="8576" y="-8768" width="-32766" height="32766" color-interpolation-filters="sRGB" filterUnits="userSpaceOnUse">
      <feFlood flood-color="#fff" result="bg"/>
      <feBlend in="SourceGraphic" in2="bg"/>
    </filter>
    <mask id="mask-1" x="8576" y="-8768" width="-32766" height="32766" maskUnits="userSpaceOnUse"/>
    <linearGradient id="linear-gradient-11" x1="238.63" y1="510.1" x2="479.58" y2="474.46" gradientUnits="userSpaceOnUse">
      <stop offset="0" stop-color="#000" stop-opacity=".1"/>
      <stop offset=".65" stop-color="#000" stop-opacity=".5"/>
    </linearGradient>
    <linearGradient id="linear-gradient-12" x1="158.03" y1="483.87" x2="-258.23" y2="552.57" gradientUnits="userSpaceOnUse">
      <stop offset="0" stop-color="#69192c"/>
      <stop offset="1" stop-color="#e3365e"/>
    </linearGradient>
  </defs>
  <g id="BG">
    <image width="1920" height="1080" transform="translate(14 34) scale(.4)" xlink:href="../abstract-colorful-gradient-red-orange-liquid-wave-background-free-vector.jpg"/>
  </g>
  <g id="Layer_1" data-name="Layer 1">
    <polygon class="cls-1" points="99.83 -163 281.4 1143 538.86 1143 357.3 -163 99.83 -163"/>
    <polygon class="cls-11" points="435.36 -163 355 -163 537 1143 616.92 1143 435.36 -163"/>
    <polygon class="cls-9" points="828.94 1143 647.38 -163 431.36 -163 612.92 1143 828.94 1143"/>
    <polygon class="cls-4" points="-242 -163 -60.44 1143 179.98 1143 -1.58 -163 -242 -163"/>
    <polygon class="cls-10" points="285.4 1143 179.98 1143 -1.58 -163 103.84 -163 285.4 1143"/>
    <polygon class="cls-14" points="639.36 -163 559 -163 741 1143 820.92 1143 639.36 -163"/>
    <polygon class="cls-12" points="415 1143 537 1143 339.42 -163 235 -163 415 1143"/>
    <polygon class="cls-13" points="872.86 1143 872.86 -163 639 -163 821 1143 872.86 1143"/>
    <polygon class="cls-8" points="537 1143 355 -163 142.52 -163 324.09 1143 537 1143"/>
    <polygon class="cls-16" points="722.58 -163 872.86 1018.28 872.86 1143 821 1143 639 -163 722.58 -163"/>
    <polygon class="cls-5" points="505.83 -163 714 1143 435 1143 -2 -163 505.83 -163"/>
    <g class="cls-2">
      <polygon class="cls-7" points="596 -163 787 1143 644 1143 482 -163 596 -163"/>
    </g>
    <g class="cls-17">
      <polygon class="cls-6" points="568 -163 759 1143 573 1143 391 -163 568 -163"/>
    </g>
    <polygon class="cls-18" points="355 -163 537 1143 374 1143 212 -163 355 -163"/>
    <polygon class="cls-15" points="355 -163 537 1143 374 1143 212 -163 355 -163"/>
    <polygon class="cls-19" points="172.3 -163 346.79 1143 283.4 1143 101.83 -163 172.3 -163"/>
    <polygon class="cls-3" points="68.89 -163 243.38 1143 179.98 1143 -1.58 -163 68.89 -163"/>
  </g>
</svg>